<mxfile host="app.diagrams.net" agent="Mozilla/5.0 (Windows NT 10.0; Win64; x64) AppleWebKit/537.36 (KHTML, like Gecko) Chrome/140.0.0.0 Safari/537.36" version="28.2.7">
  <diagram name="PÃ¡gina-1" id="4dD_A5h_gMV7D5Gy1Mj9">
    <mxGraphModel dx="1783" dy="981" grid="1" gridSize="10" guides="1" tooltips="1" connect="1" arrows="1" fold="1" page="1" pageScale="1" pageWidth="827" pageHeight="1169" math="0" shadow="0">
      <root>
        <mxCell id="0" />
        <mxCell id="1" parent="0" />
        <mxCell id="f6GxvcEwUFc_gHkZqxG_-8" value="" style="rounded=0;whiteSpace=wrap;html=1;fillColor=#d5e8d4;strokeColor=#82b366;" vertex="1" parent="1">
          <mxGeometry x="110" y="10" width="30" height="30" as="geometry" />
        </mxCell>
        <mxCell id="f6GxvcEwUFc_gHkZqxG_-9" value="MODEL:" style="text;html=1;whiteSpace=wrap;strokeColor=none;fillColor=none;align=center;verticalAlign=middle;rounded=0;" vertex="1" parent="1">
          <mxGeometry x="50" y="10" width="60" height="30" as="geometry" />
        </mxCell>
        <mxCell id="f6GxvcEwUFc_gHkZqxG_-10" value="" style="rounded=0;whiteSpace=wrap;html=1;fillColor=#dae8fc;strokeColor=#6c8ebf;" vertex="1" parent="1">
          <mxGeometry x="110" y="40" width="30" height="30" as="geometry" />
        </mxCell>
        <mxCell id="f6GxvcEwUFc_gHkZqxG_-11" value="CONTROLLER:" style="text;html=1;whiteSpace=wrap;align=center;verticalAlign=middle;rounded=0;" vertex="1" parent="1">
          <mxGeometry x="10" y="40" width="100" height="30" as="geometry" />
        </mxCell>
        <mxCell id="f6GxvcEwUFc_gHkZqxG_-12" value="" style="rounded=0;whiteSpace=wrap;html=1;fillColor=#ffe6cc;strokeColor=#d79b00;" vertex="1" parent="1">
          <mxGeometry x="110" y="70" width="30" height="30" as="geometry" />
        </mxCell>
        <mxCell id="f6GxvcEwUFc_gHkZqxG_-13" value="VIEW:" style="text;html=1;whiteSpace=wrap;align=center;verticalAlign=middle;rounded=0;" vertex="1" parent="1">
          <mxGeometry x="50" y="70" width="60" height="30" as="geometry" />
        </mxCell>
        <mxCell id="f6GxvcEwUFc_gHkZqxG_-14" value="&amp;nbsp;LandingScreen" style="swimlane;fontStyle=0;childLayout=stackLayout;horizontal=1;startSize=30;horizontalStack=0;resizeParent=1;resizeParentMax=0;resizeLast=0;collapsible=1;marginBottom=0;whiteSpace=wrap;html=1;fillColor=#ffe6cc;strokeColor=#d79b00;" vertex="1" parent="1">
          <mxGeometry x="344" y="40" width="140" height="60" as="geometry" />
        </mxCell>
        <mxCell id="f6GxvcEwUFc_gHkZqxG_-15" value="+ verifyConnection()&amp;nbsp;" style="text;strokeColor=none;fillColor=none;align=center;verticalAlign=middle;spacingLeft=4;spacingRight=4;overflow=hidden;points=[[0,0.5],[1,0.5]];portConstraint=eastwest;rotatable=0;whiteSpace=wrap;html=1;" vertex="1" parent="f6GxvcEwUFc_gHkZqxG_-14">
          <mxGeometry y="30" width="140" height="30" as="geometry" />
        </mxCell>
        <mxCell id="f6GxvcEwUFc_gHkZqxG_-34" style="edgeStyle=orthogonalEdgeStyle;rounded=0;orthogonalLoop=1;jettySize=auto;html=1;startArrow=classic;startFill=1;" edge="1" parent="1" source="f6GxvcEwUFc_gHkZqxG_-19" target="f6GxvcEwUFc_gHkZqxG_-40">
          <mxGeometry relative="1" as="geometry">
            <mxPoint x="414" y="280" as="targetPoint" />
          </mxGeometry>
        </mxCell>
        <mxCell id="f6GxvcEwUFc_gHkZqxG_-19" value="&amp;nbsp;MainDashboard" style="swimlane;fontStyle=0;childLayout=stackLayout;horizontal=1;startSize=30;horizontalStack=0;resizeParent=1;resizeParentMax=0;resizeLast=0;collapsible=1;marginBottom=0;whiteSpace=wrap;html=1;fillColor=#ffe6cc;strokeColor=#d79b00;" vertex="1" parent="1">
          <mxGeometry x="344" y="150" width="140" height="90" as="geometry" />
        </mxCell>
        <mxCell id="f6GxvcEwUFc_gHkZqxG_-20" value="+ getCurrentPhase()" style="text;strokeColor=none;fillColor=none;align=left;verticalAlign=middle;spacingLeft=4;spacingRight=4;overflow=hidden;points=[[0,0.5],[1,0.5]];portConstraint=eastwest;rotatable=0;whiteSpace=wrap;html=1;" vertex="1" parent="f6GxvcEwUFc_gHkZqxG_-19">
          <mxGeometry y="30" width="140" height="30" as="geometry" />
        </mxCell>
        <mxCell id="f6GxvcEwUFc_gHkZqxG_-21" value="+ getActualNews()&amp;nbsp;" style="text;strokeColor=none;fillColor=none;align=left;verticalAlign=middle;spacingLeft=4;spacingRight=4;overflow=hidden;points=[[0,0.5],[1,0.5]];portConstraint=eastwest;rotatable=0;whiteSpace=wrap;html=1;" vertex="1" parent="f6GxvcEwUFc_gHkZqxG_-19">
          <mxGeometry y="60" width="140" height="30" as="geometry" />
        </mxCell>
        <mxCell id="f6GxvcEwUFc_gHkZqxG_-18" style="edgeStyle=orthogonalEdgeStyle;rounded=0;orthogonalLoop=1;jettySize=auto;html=1;entryX=0.5;entryY=0;entryDx=0;entryDy=0;" edge="1" parent="1" source="f6GxvcEwUFc_gHkZqxG_-15" target="f6GxvcEwUFc_gHkZqxG_-19">
          <mxGeometry relative="1" as="geometry">
            <mxPoint x="414" y="200" as="targetPoint" />
            <Array as="points">
              <mxPoint x="414" y="140" />
              <mxPoint x="414" y="140" />
            </Array>
          </mxGeometry>
        </mxCell>
        <mxCell id="f6GxvcEwUFc_gHkZqxG_-24" value="TipsView" style="swimlane;fontStyle=0;childLayout=stackLayout;horizontal=1;startSize=30;horizontalStack=0;resizeParent=1;resizeParentMax=0;resizeLast=0;collapsible=1;marginBottom=0;whiteSpace=wrap;html=1;fillColor=#ffe6cc;strokeColor=#d79b00;" vertex="1" parent="1">
          <mxGeometry x="550" y="165" width="140" height="60" as="geometry" />
        </mxCell>
        <mxCell id="f6GxvcEwUFc_gHkZqxG_-27" value="+&amp;nbsp; showActualTips()" style="text;strokeColor=none;fillColor=none;align=left;verticalAlign=middle;spacingLeft=4;spacingRight=4;overflow=hidden;points=[[0,0.5],[1,0.5]];portConstraint=eastwest;rotatable=0;whiteSpace=wrap;html=1;" vertex="1" parent="f6GxvcEwUFc_gHkZqxG_-24">
          <mxGeometry y="30" width="140" height="30" as="geometry" />
        </mxCell>
        <mxCell id="f6GxvcEwUFc_gHkZqxG_-23" style="edgeStyle=orthogonalEdgeStyle;rounded=0;orthogonalLoop=1;jettySize=auto;html=1;endArrow=classicThin;endFill=1;startArrow=classicThin;startFill=1;entryX=0;entryY=0.5;entryDx=0;entryDy=0;" edge="1" parent="1" source="f6GxvcEwUFc_gHkZqxG_-20" target="f6GxvcEwUFc_gHkZqxG_-24">
          <mxGeometry relative="1" as="geometry">
            <mxPoint x="560" y="195" as="targetPoint" />
          </mxGeometry>
        </mxCell>
        <mxCell id="f6GxvcEwUFc_gHkZqxG_-30" value="RefugeMapView" style="swimlane;fontStyle=0;childLayout=stackLayout;horizontal=1;startSize=30;horizontalStack=0;resizeParent=1;resizeParentMax=0;resizeLast=0;collapsible=1;marginBottom=0;whiteSpace=wrap;html=1;fillColor=#ffe6cc;strokeColor=#d79b00;" vertex="1" parent="1">
          <mxGeometry x="150" y="165" width="140" height="60" as="geometry" />
        </mxCell>
        <mxCell id="f6GxvcEwUFc_gHkZqxG_-31" value="+&amp;nbsp;showNearbyRefuges()&amp;nbsp;&amp;nbsp;" style="text;strokeColor=none;fillColor=none;align=left;verticalAlign=middle;spacingLeft=4;spacingRight=4;overflow=hidden;points=[[0,0.5],[1,0.5]];portConstraint=eastwest;rotatable=0;whiteSpace=wrap;html=1;" vertex="1" parent="f6GxvcEwUFc_gHkZqxG_-30">
          <mxGeometry y="30" width="140" height="30" as="geometry" />
        </mxCell>
        <mxCell id="f6GxvcEwUFc_gHkZqxG_-29" style="edgeStyle=orthogonalEdgeStyle;rounded=0;orthogonalLoop=1;jettySize=auto;html=1;startArrow=classic;startFill=1;" edge="1" parent="1" source="f6GxvcEwUFc_gHkZqxG_-20" target="f6GxvcEwUFc_gHkZqxG_-30">
          <mxGeometry relative="1" as="geometry">
            <mxPoint x="250" y="195" as="targetPoint" />
          </mxGeometry>
        </mxCell>
        <mxCell id="f6GxvcEwUFc_gHkZqxG_-44" style="edgeStyle=orthogonalEdgeStyle;rounded=0;orthogonalLoop=1;jettySize=auto;html=1;endArrow=classic;endFill=1;startArrow=classic;startFill=1;" edge="1" parent="1" source="f6GxvcEwUFc_gHkZqxG_-40" target="f6GxvcEwUFc_gHkZqxG_-24">
          <mxGeometry relative="1" as="geometry" />
        </mxCell>
        <mxCell id="f6GxvcEwUFc_gHkZqxG_-45" style="edgeStyle=orthogonalEdgeStyle;rounded=0;orthogonalLoop=1;jettySize=auto;html=1;startArrow=classic;startFill=1;" edge="1" parent="1" source="f6GxvcEwUFc_gHkZqxG_-40" target="f6GxvcEwUFc_gHkZqxG_-30">
          <mxGeometry relative="1" as="geometry" />
        </mxCell>
        <mxCell id="f6GxvcEwUFc_gHkZqxG_-40" value="FAQView" style="swimlane;fontStyle=0;childLayout=stackLayout;horizontal=1;startSize=30;horizontalStack=0;resizeParent=1;resizeParentMax=0;resizeLast=0;collapsible=1;marginBottom=0;whiteSpace=wrap;html=1;fillColor=#ffe6cc;strokeColor=#d79b00;" vertex="1" parent="1">
          <mxGeometry x="344" y="280" width="140" height="60" as="geometry" />
        </mxCell>
        <mxCell id="f6GxvcEwUFc_gHkZqxG_-41" value="+&amp;nbsp;showFAQ()&amp;nbsp;&amp;nbsp;" style="text;strokeColor=none;fillColor=none;align=left;verticalAlign=middle;spacingLeft=4;spacingRight=4;overflow=hidden;points=[[0,0.5],[1,0.5]];portConstraint=eastwest;rotatable=0;whiteSpace=wrap;html=1;" vertex="1" parent="f6GxvcEwUFc_gHkZqxG_-40">
          <mxGeometry y="30" width="140" height="30" as="geometry" />
        </mxCell>
        <mxCell id="f6GxvcEwUFc_gHkZqxG_-62" style="edgeStyle=orthogonalEdgeStyle;rounded=0;orthogonalLoop=1;jettySize=auto;html=1;startArrow=classic;startFill=1;" edge="1" parent="1" source="f6GxvcEwUFc_gHkZqxG_-46" target="f6GxvcEwUFc_gHkZqxG_-40">
          <mxGeometry relative="1" as="geometry" />
        </mxCell>
        <mxCell id="f6GxvcEwUFc_gHkZqxG_-63" style="edgeStyle=orthogonalEdgeStyle;rounded=0;orthogonalLoop=1;jettySize=auto;html=1;startArrow=classic;startFill=1;" edge="1" parent="1" source="f6GxvcEwUFc_gHkZqxG_-46" target="f6GxvcEwUFc_gHkZqxG_-24">
          <mxGeometry relative="1" as="geometry">
            <Array as="points">
              <mxPoint x="640" y="540" />
            </Array>
          </mxGeometry>
        </mxCell>
        <mxCell id="f6GxvcEwUFc_gHkZqxG_-64" style="edgeStyle=orthogonalEdgeStyle;rounded=0;orthogonalLoop=1;jettySize=auto;html=1;startArrow=classic;startFill=1;" edge="1" parent="1" source="f6GxvcEwUFc_gHkZqxG_-46" target="f6GxvcEwUFc_gHkZqxG_-30">
          <mxGeometry relative="1" as="geometry">
            <Array as="points">
              <mxPoint x="190" y="530" />
            </Array>
          </mxGeometry>
        </mxCell>
        <mxCell id="f6GxvcEwUFc_gHkZqxG_-65" style="edgeStyle=orthogonalEdgeStyle;rounded=0;orthogonalLoop=1;jettySize=auto;html=1;startArrow=classic;startFill=1;" edge="1" parent="1" source="f6GxvcEwUFc_gHkZqxG_-46" target="f6GxvcEwUFc_gHkZqxG_-19">
          <mxGeometry relative="1" as="geometry">
            <Array as="points">
              <mxPoint x="310" y="220" />
            </Array>
          </mxGeometry>
        </mxCell>
        <mxCell id="f6GxvcEwUFc_gHkZqxG_-66" style="edgeStyle=orthogonalEdgeStyle;rounded=0;orthogonalLoop=1;jettySize=auto;html=1;startArrow=classic;startFill=1;" edge="1" parent="1" source="f6GxvcEwUFc_gHkZqxG_-46" target="f6GxvcEwUFc_gHkZqxG_-14">
          <mxGeometry relative="1" as="geometry">
            <Array as="points">
              <mxPoint x="530" y="80" />
            </Array>
          </mxGeometry>
        </mxCell>
        <mxCell id="f6GxvcEwUFc_gHkZqxG_-46" value="Controller" style="swimlane;fontStyle=0;childLayout=stackLayout;horizontal=1;startSize=30;horizontalStack=0;resizeParent=1;resizeParentMax=0;resizeLast=0;collapsible=1;marginBottom=0;whiteSpace=wrap;html=1;fillColor=#dae8fc;strokeColor=#6c8ebf;" vertex="1" parent="1">
          <mxGeometry x="249" y="410" width="330" height="250" as="geometry" />
        </mxCell>
        <mxCell id="f6GxvcEwUFc_gHkZqxG_-47" value="&lt;div&gt;&lt;div&gt;&lt;b&gt;AlertsController&lt;span style=&quot;background-color: transparent; color: light-dark(rgb(0, 0, 0), rgb(255, 255, 255));&quot;&gt;&amp;nbsp;&lt;/span&gt;&lt;/b&gt;&lt;/div&gt;&lt;div&gt;&lt;br&gt;&lt;/div&gt;&lt;/div&gt;&lt;div&gt;+ List&amp;lt;Alert&amp;gt; alerts&lt;/div&gt;&lt;div&gt;&lt;span style=&quot;background-color: transparent; color: light-dark(rgb(0, 0, 0), rgb(255, 255, 255));&quot;&gt;+ getAlertsByPhase(phase)&lt;/span&gt;&lt;/div&gt;&lt;div&gt;+ generateRandomAlert()&lt;/div&gt;" style="text;strokeColor=none;fillColor=none;align=left;verticalAlign=middle;spacingLeft=4;spacingRight=4;overflow=hidden;points=[[0,0.5],[1,0.5]];portConstraint=eastwest;rotatable=0;whiteSpace=wrap;html=1;" vertex="1" parent="f6GxvcEwUFc_gHkZqxG_-46">
          <mxGeometry y="30" width="330" height="80" as="geometry" />
        </mxCell>
        <mxCell id="f6GxvcEwUFc_gHkZqxG_-48" value="&lt;div&gt;&lt;b&gt;PhaseController&lt;/b&gt;&lt;/div&gt;&lt;div&gt;&lt;br&gt;&lt;/div&gt;&lt;div&gt;&lt;span style=&quot;background-color: transparent; color: light-dark(rgb(0, 0, 0), rgb(255, 255, 255));&quot;&gt;+ getCurrentPhase()&lt;/span&gt;&lt;/div&gt;&lt;div&gt;&lt;span style=&quot;background-color: transparent; color: light-dark(rgb(0, 0, 0), rgb(255, 255, 255));&quot;&gt;+ advancePhase()&amp;nbsp;&amp;nbsp;&lt;/span&gt;&lt;/div&gt;" style="text;strokeColor=none;fillColor=none;align=left;verticalAlign=middle;spacingLeft=4;spacingRight=4;overflow=hidden;points=[[0,0.5],[1,0.5]];portConstraint=eastwest;rotatable=0;whiteSpace=wrap;html=1;" vertex="1" parent="f6GxvcEwUFc_gHkZqxG_-46">
          <mxGeometry y="110" width="330" height="70" as="geometry" />
        </mxCell>
        <mxCell id="f6GxvcEwUFc_gHkZqxG_-49" value="&lt;b&gt;LocationController&lt;/b&gt;&lt;div&gt;&lt;br&gt;&lt;/div&gt;&lt;div&gt;&lt;div&gt;+&amp;nbsp;findNearbyRefuges()&amp;nbsp;&lt;/div&gt;&lt;div&gt;+&amp;nbsp;getUserLocation()&lt;/div&gt;&lt;/div&gt;" style="text;strokeColor=none;fillColor=none;align=left;verticalAlign=middle;spacingLeft=4;spacingRight=4;overflow=hidden;points=[[0,0.5],[1,0.5]];portConstraint=eastwest;rotatable=0;whiteSpace=wrap;html=1;" vertex="1" parent="f6GxvcEwUFc_gHkZqxG_-46">
          <mxGeometry y="180" width="330" height="70" as="geometry" />
        </mxCell>
        <mxCell id="f6GxvcEwUFc_gHkZqxG_-59" style="edgeStyle=orthogonalEdgeStyle;rounded=0;orthogonalLoop=1;jettySize=auto;html=1;startArrow=classic;startFill=1;" edge="1" parent="1" source="f6GxvcEwUFc_gHkZqxG_-50" target="f6GxvcEwUFc_gHkZqxG_-46">
          <mxGeometry relative="1" as="geometry" />
        </mxCell>
        <mxCell id="f6GxvcEwUFc_gHkZqxG_-50" value="Alerts" style="swimlane;fontStyle=0;childLayout=stackLayout;horizontal=1;startSize=30;horizontalStack=0;resizeParent=1;resizeParentMax=0;resizeLast=0;collapsible=1;marginBottom=0;whiteSpace=wrap;html=1;fillColor=#d5e8d4;strokeColor=#82b366;" vertex="1" parent="1">
          <mxGeometry x="150" y="790" width="140" height="120" as="geometry" />
        </mxCell>
        <mxCell id="f6GxvcEwUFc_gHkZqxG_-52" value="&lt;br&gt;&lt;div&gt;&lt;div&gt;- id: String&lt;/div&gt;&lt;div&gt;- title: String&lt;/div&gt;&lt;div&gt;- description: String&lt;/div&gt;&lt;div&gt;- fase: Int&amp;nbsp;&amp;nbsp;&lt;/div&gt;&lt;div&gt;&lt;br&gt;&lt;/div&gt;&lt;/div&gt;" style="text;strokeColor=none;fillColor=none;align=left;verticalAlign=middle;spacingLeft=4;spacingRight=4;overflow=hidden;points=[[0,0.5],[1,0.5]];portConstraint=eastwest;rotatable=0;whiteSpace=wrap;html=1;" vertex="1" parent="f6GxvcEwUFc_gHkZqxG_-50">
          <mxGeometry y="30" width="140" height="90" as="geometry" />
        </mxCell>
        <mxCell id="f6GxvcEwUFc_gHkZqxG_-60" style="edgeStyle=orthogonalEdgeStyle;rounded=0;orthogonalLoop=1;jettySize=auto;html=1;startArrow=classic;startFill=1;" edge="1" parent="1" source="f6GxvcEwUFc_gHkZqxG_-54" target="f6GxvcEwUFc_gHkZqxG_-46">
          <mxGeometry relative="1" as="geometry" />
        </mxCell>
        <mxCell id="f6GxvcEwUFc_gHkZqxG_-54" value="Phases" style="swimlane;fontStyle=0;childLayout=stackLayout;horizontal=1;startSize=30;horizontalStack=0;resizeParent=1;resizeParentMax=0;resizeLast=0;collapsible=1;marginBottom=0;whiteSpace=wrap;html=1;fillColor=#d5e8d4;strokeColor=#82b366;" vertex="1" parent="1">
          <mxGeometry x="344" y="790" width="140" height="120" as="geometry" />
        </mxCell>
        <mxCell id="f6GxvcEwUFc_gHkZqxG_-55" value="&lt;div&gt;&lt;div&gt;&lt;div&gt;- numero: Int&amp;nbsp;&lt;/div&gt;&lt;div&gt;- description: String&lt;/div&gt;&lt;/div&gt;&lt;/div&gt;" style="text;strokeColor=none;fillColor=none;align=left;verticalAlign=middle;spacingLeft=4;spacingRight=4;overflow=hidden;points=[[0,0.5],[1,0.5]];portConstraint=eastwest;rotatable=0;whiteSpace=wrap;html=1;" vertex="1" parent="f6GxvcEwUFc_gHkZqxG_-54">
          <mxGeometry y="30" width="140" height="90" as="geometry" />
        </mxCell>
        <mxCell id="f6GxvcEwUFc_gHkZqxG_-61" style="edgeStyle=orthogonalEdgeStyle;rounded=0;orthogonalLoop=1;jettySize=auto;html=1;startArrow=classic;startFill=1;" edge="1" parent="1" source="f6GxvcEwUFc_gHkZqxG_-56" target="f6GxvcEwUFc_gHkZqxG_-46">
          <mxGeometry relative="1" as="geometry" />
        </mxCell>
        <mxCell id="f6GxvcEwUFc_gHkZqxG_-56" value="Location" style="swimlane;fontStyle=0;childLayout=stackLayout;horizontal=1;startSize=30;horizontalStack=0;resizeParent=1;resizeParentMax=0;resizeLast=0;collapsible=1;marginBottom=0;whiteSpace=wrap;html=1;fillColor=#d5e8d4;strokeColor=#82b366;" vertex="1" parent="1">
          <mxGeometry x="550" y="790" width="140" height="120" as="geometry" />
        </mxCell>
        <mxCell id="f6GxvcEwUFc_gHkZqxG_-57" value="&lt;div&gt;- latitude: int&lt;/div&gt;&lt;div&gt;- longitude: int&lt;/div&gt;" style="text;strokeColor=none;fillColor=none;align=left;verticalAlign=middle;spacingLeft=4;spacingRight=4;overflow=hidden;points=[[0,0.5],[1,0.5]];portConstraint=eastwest;rotatable=0;whiteSpace=wrap;html=1;" vertex="1" parent="f6GxvcEwUFc_gHkZqxG_-56">
          <mxGeometry y="30" width="140" height="90" as="geometry" />
        </mxCell>
      </root>
    </mxGraphModel>
  </diagram>
</mxfile>
